# xmcd
#
# Track frame offsets:
#	150
#	8078
#	21953
#	32753
#	43478
#	56078
#	65528
#	79688
#	89386
#	100576
#	108511
#	119551
#	139629
#	151854
#
# Disc length: 2158 seconds
#
# Revision: 1
# Processed by: cddbd v1.5.2PL0 Copyright (c) Steve Scherf et al.
# Submitted via: audiograbber 1.83.01
#
DISCID=b5086c0e
DTITLE=Bob Wills and Hit Texas Playboys - The Biffany Transcriptions Vol. 1
DYEAR=1982
DGENRE=Western Swing
TTITLE0=Nancy Jane
TTITLE1=Mission To Moscow
TTITLE2=Dinah
TTITLE3=Long Star Rag
TTITLE4=Cotton Patch Blues
TTITLE5=Sweet Jennie Lee
TTITLE6=I Hear You Talkin' 
TTITLE7=The Girl I Left Behind Me
TTITLE8=Straighten Up And Fly Right
TTITLE9=Little Betty Brown
TTITLE10=Nobody's Sweetheart Now
TTITLE11=Blackout Blues
TTITLE12=What's The Matter With The Mill
TTITLE13=Jumpin' At The Woodside
EXTD=This is made from one of my LP's\n
EXTT0=
EXTT1=
EXTT2=
EXTT3=
EXTT4=
EXTT5=
EXTT6=
EXTT7=
EXTT8=
EXTT9=
EXTT10=
EXTT11=
EXTT12=
EXTT13=
PLAYORDER=
